<svg height='100px' width='100px'  fill="#eaeaea" xmlns="http://www.w3.org/2000/svg" data-name="Layer 1" viewBox="0 0 64 64" x="0px" y="0px"><path d="M59.91248,40.98309a9.72053,9.72053,0,0,0-2.03324-13.89223c2.99-6.12573-1.81519-13.81689-8.64941-13.66054A2.05923,2.05923,0,0,0,46.918,15.61724a2.03038,2.03038,0,0,0,2.312,1.81291A5.62072,5.62072,0,0,1,54.16315,25.553a9.45783,9.45783,0,0,0-1.70172-.16193,2,2,0,0,0,0,4,5.59431,5.59431,0,0,1,5.46837,4.7613c.84381,7.90185-10.63172,8.84992-11.007.84749a2,2,0,0,0-4,.0001,9.58467,9.58467,0,0,0,9.53858,9.60889,9.45783,9.45783,0,0,0,1.70172-.16193A5.64535,5.64535,0,0,1,54.77,46.96a5.58167,5.58167,0,0,1-5.54,5.60986c-1.11617.09484-2.27577-.78625-3.3413-.13818a2.00133,2.00133,0,0,0-.97364,1.28272C43.39162,59.84405,34.68729,59.10852,34,52.896V33a2.00021,2.00021,0,0,0-4,.00009V52.88672A5.66274,5.66274,0,0,1,24.45991,58a5.48894,5.48894,0,0,1-4.77925-2.81516,9.68129,9.68129,0,0,0,1.83985-15.01635A2.00037,2.00037,0,0,0,18.67878,42.984c3.4887,3.386.95616,9.639-3.90989,9.5814-4.925.03683-7.34342-6.15-3.90886-9.58149A1.9973,1.9973,0,0,0,8.62067,39.7561c-3.89221-2.27705-3.25712-8.566,1.00677-10.01831a2.013,2.013,0,0,0,.86178-3.14307c-2.96636-3.49121-.3216-9.26007,4.28094-9.16446A2.02838,2.02838,0,0,0,17.082,15.61717a2.0592,2.0592,0,0,0-2.312-2.18694C7.93839,13.27653,3.1269,20.962,6.12061,27.09082a9.69711,9.69711,0,0,0,.001,15.81641A9.72566,9.72566,0,0,0,8.01815,53.74461a9.51533,9.51533,0,0,0,7.74461,2.76747A9.58866,9.58866,0,0,0,32.00064,58.2403a9.51889,9.51889,0,0,0,16.15461-1.73316c7.2232,1.011,12.93746-7.07608,9.72317-13.59991A10.08774,10.08774,0,0,0,59.91248,40.98309Z"></path><path d="M20,18a2.00021,2.00021,0,0,0,.00009,4H21v2a3.00328,3.00328,0,0,0,3,3h2v1a2,2,0,0,0,4,0V27h4v1a2.00021,2.00021,0,0,0,4-.00009V27h2a3.00328,3.00328,0,0,0,3-3V22h1a2.00021,2.00021,0,0,0-.00009-4H43V14h1a2,2,0,0,0,0-4H43V8a3.00328,3.00328,0,0,0-3-3H38V4a2,2,0,0,0-4,0V5H30V4a2,2,0,0,0-4,0V5H24a3.00328,3.00328,0,0,0-3,3v2H20a2,2,0,0,0,0,4h1v4Zm5-9H39V23H25Z"></path><path d="M32,14a2.00022,2.00022,0,0,0,.00009,4A2.00022,2.00022,0,0,0,32,14Z"></path></svg>